# xmcd
#
# Track frame offsets: 
#        150
#        15585
#        27680
#        42792
#        55560
#        67762
#        81775
#        95952
#        110837
#        126362
#        140415
#        156385
#        170220
#        181340
#        195782
#        211395
#        225692
#        240725
#
# Disc length: 3394 seconds
#
# Revision: 19
# Processed by: cddbd v1.5.2PL0 Copyright (c) Steve Scherf et al.
# Submitted via: ExactAudioCopyFreeDBPlugin 1.0
#
DISCID=fb0d4012
DTITLE=Asleep at the Wheel - Tribute to the Music of Bob Wills and the T
DTITLE=exas Playboys Vol.1
DYEAR=1993
DGENRE=Western Swing
TTITLE0=Red Wing (Shamblin, Gimble, Atkins, Gill, Stuart, Gosfield)
TTITLE1=Big Ball's in Cowtown (George Straight, Ray Benson)
TTITLE2=Yearning (Just for You) (Vince Gill)
TTITLE3=Bring It on Down to My House (Ray Benson)
TTITLE4=Deep Water (Garth Brooks)
TTITLE5=Blues for Dixie (Lyle Lovett)
TTITLE6=Billy Dale  (Dolly Parton)
TTITLE7=Across the Alley from the Alamo ((Johnny Rodriguez, Ray Benson
TTITLE7=))
TTITLE8=Old Fashioned Love (Suzy Bogguss, Ray Benson)
TTITLE9=Ida Red (Jody Nix, Huey Lewis, Willie Nelson, Ray Benson)
TTITLE10=Misery (Marty Stuart)
TTITLE11=I Wonder If You Feel the Way I Do (Merle Haggard)
TTITLE12=Hubbin' It (Heuy Lewis, Ray Benson)
TTITLE13=Corrina, Corrina (Brooks and Dunn)
TTITLE14=Still Water Runs the Deepest (Willie Nelson)
TTITLE15=All Night Long (Leon Rausch)
TTITLE16=Got a Letter from My Kid Today (Ray Benson)
TTITLE17=Dusty Skies (Riders In The Sky, Ray Benson)
EXTD=YEAR: 1993
EXTT0=
EXTT1=
EXTT2=
EXTT3=
EXTT4=
EXTT5=
EXTT6=
EXTT7=
EXTT8=
EXTT9=
EXTT10=
EXTT11=
EXTT12=
EXTT13=
EXTT14=
EXTT15=
EXTT16=
EXTT17=
PLAYORDER=
